# MagicaVoxel @ Ephtracy

# group
o 

# material
mtllib TempPlayer.mtl
usemtl palette

# normals
vn -1 0 0
vn 1 0 0
vn 0 0 1
vn 0 0 -1
vn 0 -1 0
vn 0 1 0

# texcoords
vt 0.798828 0.5
vt 0.861328 0.5
vt 0.990234 0.5

# verts
v 0.1 2.4 -0.5
v 0.1 2.4 -0.7
v 0.1 2.5 -0.5
v 0.1 2.5 -0.7
v 0.2 2.4 -0.7
v 0.2 2.4 -0.8
v 0.2 2.5 -0.7
v 0.2 2.5 -0.8
v 0.3 2.3 -0.5
v 0.3 2.3 -0.9
v 0.3 2.4 -0.4
v 0.3 2.4 -0.5
v 0.3 2.4 -0.8
v 0.3 2.5 -0.2
v 0.3 2.5 -0.3
v 0.3 2.5 -0.5
v 0.3 2.5 -0.7
v 0.3 2.5 -0.8
v 0.3 2.5 -0.9
v 0.3 2.6 -0.2
v 0.3 2.6 -0.3
v 0.3 2.6 -0.4
v 0.3 2.6 -0.7
v 0.3 2.6 -0.8
v 0.4 2.3 -0.4
v 0.4 2.3 -0.5
v 0.4 2.4 -0.4
v 0.4 2.4 -0.5
v 0.4 2.5 -0.3
v 0.4 2.5 -0.4
v 0.4 2.6 -0.3
v 0.4 2.6 -0.4
v 0.4 2.6 -0.5
v 0.4 2.6 -0.6
v 0.4 2.7 -0.5
v 0.4 2.7 -0.6
v 0.5 2.3 -0.4
v 0.5 2.3 -0.5
v 0.5 2.4 -0.4
v 0.5 2.4 -0.5
v 0.5 2.5 -0.3
v 0.5 2.5 -0.4
v 0.5 2.6 -0.3
v 0.5 2.6 -0.4
v 0.5 2.6 -0.5
v 0.5 2.6 -0.6
v 0.5 2.7 -0.5
v 0.5 2.7 -0.6
v 0.6 2.3 -0.5
v 0.6 2.3 -0.9
v 0.6 2.4 -0.4
v 0.6 2.4 -0.5
v 0.6 2.4 -0.8
v 0.6 2.5 -0.2
v 0.6 2.5 -0.3
v 0.6 2.5 -0.5
v 0.6 2.5 -0.7
v 0.6 2.5 -0.8
v 0.6 2.5 -0.9
v 0.6 2.6 -0.2
v 0.6 2.6 -0.3
v 0.6 2.6 -0.4
v 0.6 2.6 -0.7
v 0.6 2.6 -0.8
v 0.7 2.4 -0.7
v 0.7 2.4 -0.8
v 0.7 2.5 -0.7
v 0.7 2.5 -0.8
v 0.8 2.4 -0.5
v 0.8 2.4 -0.7
v 0.8 2.5 -0.5
v 0.8 2.5 -0.7
v 0.3 2.5 -0.2
v 0.3 2.6 -0.2
v 0.6 2.5 -0.2
v 0.6 2.6 -0.2
v 0.3 2.4 -0.4
v 0.3 2.6 -0.4
v 0.4 2.3 -0.4
v 0.4 2.4 -0.4
v 0.4 2.5 -0.4
v 0.4 2.6 -0.4
v 0.5 2.3 -0.4
v 0.5 2.4 -0.4
v 0.5 2.5 -0.4
v 0.5 2.6 -0.4
v 0.6 2.4 -0.4
v 0.6 2.6 -0.4
v 0.1 2.4 -0.5
v 0.1 2.5 -0.5
v 0.3 2.3 -0.5
v 0.3 2.4 -0.5
v 0.3 2.5 -0.5
v 0.4 2.3 -0.5
v 0.4 2.4 -0.5
v 0.4 2.6 -0.5
v 0.4 2.7 -0.5
v 0.5 2.3 -0.5
v 0.5 2.4 -0.5
v 0.5 2.6 -0.5
v 0.5 2.7 -0.5
v 0.6 2.3 -0.5
v 0.6 2.4 -0.5
v 0.6 2.5 -0.5
v 0.8 2.4 -0.5
v 0.8 2.5 -0.5
v 0.3 2.5 -0.3
v 0.3 2.6 -0.3
v 0.4 2.5 -0.3
v 0.4 2.6 -0.3
v 0.5 2.5 -0.3
v 0.5 2.6 -0.3
v 0.6 2.5 -0.3
v 0.6 2.6 -0.3
v 0.4 2.6 -0.6
v 0.4 2.7 -0.6
v 0.5 2.6 -0.6
v 0.5 2.7 -0.6
v 0.1 2.4 -0.7
v 0.1 2.5 -0.7
v 0.2 2.4 -0.7
v 0.2 2.5 -0.7
v 0.7 2.4 -0.7
v 0.7 2.5 -0.7
v 0.8 2.4 -0.7
v 0.8 2.5 -0.7
v 0.2 2.4 -0.8
v 0.2 2.5 -0.8
v 0.3 2.4 -0.8
v 0.3 2.5 -0.8
v 0.3 2.6 -0.8
v 0.4 2.5 -0.8
v 0.4 2.6 -0.8
v 0.5 2.5 -0.8
v 0.5 2.6 -0.8
v 0.6 2.4 -0.8
v 0.6 2.5 -0.8
v 0.6 2.6 -0.8
v 0.7 2.4 -0.8
v 0.7 2.5 -0.8
v 0.3 2.3 -0.9
v 0.3 2.5 -0.9
v 0.6 2.3 -0.9
v 0.6 2.5 -0.9
v 0.4 2.3 -0.4
v 0.5 2.3 -0.4
v 0.3 2.3 -0.5
v 0.4 2.3 -0.5
v 0.5 2.3 -0.5
v 0.6 2.3 -0.5
v 0.3 2.3 -0.9
v 0.6 2.3 -0.9
v 0.3 2.4 -0.4
v 0.4 2.4 -0.4
v 0.5 2.4 -0.4
v 0.6 2.4 -0.4
v 0.1 2.4 -0.5
v 0.3 2.4 -0.5
v 0.4 2.4 -0.5
v 0.5 2.4 -0.5
v 0.6 2.4 -0.5
v 0.8 2.4 -0.5
v 0.1 2.4 -0.7
v 0.2 2.4 -0.7
v 0.7 2.4 -0.7
v 0.8 2.4 -0.7
v 0.2 2.4 -0.8
v 0.3 2.4 -0.8
v 0.6 2.4 -0.8
v 0.7 2.4 -0.8
v 0.3 2.5 -0.2
v 0.6 2.5 -0.2
v 0.3 2.5 -0.3
v 0.4 2.5 -0.3
v 0.5 2.5 -0.3
v 0.6 2.5 -0.3
v 0.4 2.5 -0.4
v 0.5 2.5 -0.4
v 0.1 2.5 -0.5
v 0.3 2.5 -0.5
v 0.6 2.5 -0.5
v 0.8 2.5 -0.5
v 0.1 2.5 -0.7
v 0.2 2.5 -0.7
v 0.3 2.5 -0.7
v 0.6 2.5 -0.7
v 0.7 2.5 -0.7
v 0.8 2.5 -0.7
v 0.2 2.5 -0.8
v 0.3 2.5 -0.8
v 0.4 2.5 -0.8
v 0.5 2.5 -0.8
v 0.6 2.5 -0.8
v 0.7 2.5 -0.8
v 0.3 2.5 -0.9
v 0.6 2.5 -0.9
v 0.3 2.6 -0.2
v 0.6 2.6 -0.2
v 0.3 2.6 -0.3
v 0.4 2.6 -0.3
v 0.5 2.6 -0.3
v 0.6 2.6 -0.3
v 0.3 2.6 -0.4
v 0.4 2.6 -0.4
v 0.5 2.6 -0.4
v 0.6 2.6 -0.4
v 0.4 2.6 -0.5
v 0.5 2.6 -0.5
v 0.4 2.6 -0.6
v 0.5 2.6 -0.6
v 0.3 2.6 -0.7
v 0.4 2.6 -0.7
v 0.5 2.6 -0.7
v 0.6 2.6 -0.7
v 0.3 2.6 -0.8
v 0.4 2.6 -0.8
v 0.5 2.6 -0.8
v 0.6 2.6 -0.8
v 0.4 2.7 -0.5
v 0.5 2.7 -0.5
v 0.4 2.7 -0.6
v 0.5 2.7 -0.6

# faces
f 3/1/1 2/1/1 1/1/1
f 4/1/1 2/1/1 3/1/1
f 7/1/1 6/1/1 5/1/1
f 8/1/1 6/1/1 7/1/1
f 12/1/1 10/1/1 9/1/1
f 13/1/1 10/1/1 12/1/1
f 16/1/1 12/1/1 11/1/1
f 18/1/1 10/1/1 13/1/1
f 19/1/1 10/1/1 18/1/1
f 20/1/1 15/1/1 14/1/1
f 21/1/1 15/1/1 20/1/1
f 22/1/1 17/1/1 16/1/1
f 22/1/1 16/1/1 11/1/1
f 23/2/1 18/2/1 17/2/1
f 23/1/1 17/1/1 22/1/1
f 24/2/1 18/2/1 23/2/1
f 27/1/1 26/1/1 25/1/1
f 28/1/1 26/1/1 27/1/1
f 31/1/1 30/1/1 29/1/1
f 32/1/1 30/1/1 31/1/1
f 35/3/1 34/3/1 33/3/1
f 36/3/1 34/3/1 35/3/1
f 37/1/2 38/1/2 39/1/2
f 39/1/2 38/1/2 40/1/2
f 41/1/2 42/1/2 43/1/2
f 43/1/2 42/1/2 44/1/2
f 45/3/2 46/3/2 47/3/2
f 47/3/2 46/3/2 48/3/2
f 49/1/2 50/1/2 52/1/2
f 52/1/2 50/1/2 53/1/2
f 51/1/2 52/1/2 56/1/2
f 53/1/2 50/1/2 58/1/2
f 58/1/2 50/1/2 59/1/2
f 54/1/2 55/1/2 60/1/2
f 60/1/2 55/1/2 61/1/2
f 56/1/2 57/1/2 62/1/2
f 51/1/2 56/1/2 62/1/2
f 57/2/2 58/2/2 63/2/2
f 62/1/2 57/1/2 63/1/2
f 63/2/2 58/2/2 64/2/2
f 65/1/2 66/1/2 67/1/2
f 67/1/2 66/1/2 68/1/2
f 69/1/2 70/1/2 71/1/2
f 71/1/2 70/1/2 72/1/2
f 75/1/3 74/1/3 73/1/3
f 76/1/3 74/1/3 75/1/3
f 80/1/3 78/1/3 77/1/3
f 81/1/3 78/1/3 80/1/3
f 82/1/3 78/1/3 81/1/3
f 83/1/3 80/1/3 79/1/3
f 83/1/3 81/1/3 80/1/3
f 84/1/3 81/1/3 83/1/3
f 85/1/3 81/1/3 84/1/3
f 87/1/3 86/1/3 85/1/3
f 87/1/3 85/1/3 84/1/3
f 88/1/3 86/1/3 87/1/3
f 92/1/3 90/1/3 89/1/3
f 93/1/3 90/1/3 92/1/3
f 94/1/3 92/1/3 91/1/3
f 95/1/3 92/1/3 94/1/3
f 100/3/3 97/3/3 96/3/3
f 101/3/3 97/3/3 100/3/3
f 102/1/3 99/1/3 98/1/3
f 103/1/3 99/1/3 102/1/3
f 105/1/3 104/1/3 103/1/3
f 106/1/3 104/1/3 105/1/3
f 107/1/4 108/1/4 109/1/4
f 109/1/4 108/1/4 110/1/4
f 111/1/4 112/1/4 113/1/4
f 113/1/4 112/1/4 114/1/4
f 115/3/4 116/3/4 117/3/4
f 117/3/4 116/3/4 118/3/4
f 119/1/4 120/1/4 121/1/4
f 121/1/4 120/1/4 122/1/4
f 123/1/4 124/1/4 125/1/4
f 125/1/4 124/1/4 126/1/4
f 127/1/4 128/1/4 129/1/4
f 129/1/4 128/1/4 130/1/4
f 130/2/4 131/2/4 132/2/4
f 132/2/4 131/2/4 133/2/4
f 132/1/4 133/1/4 134/1/4
f 134/1/4 133/1/4 135/1/4
f 134/2/4 135/2/4 137/2/4
f 137/2/4 135/2/4 138/2/4
f 136/1/4 137/1/4 139/1/4
f 139/1/4 137/1/4 140/1/4
f 141/1/4 142/1/4 143/1/4
f 143/1/4 142/1/4 144/1/4
f 148/1/5 146/1/5 145/1/5
f 149/1/5 146/1/5 148/1/5
f 151/1/5 148/1/5 147/1/5
f 151/1/5 150/1/5 149/1/5
f 151/1/5 149/1/5 148/1/5
f 152/1/5 150/1/5 151/1/5
f 158/1/5 154/1/5 153/1/5
f 159/1/5 154/1/5 158/1/5
f 160/1/5 156/1/5 155/1/5
f 161/1/5 156/1/5 160/1/5
f 163/1/5 158/1/5 157/1/5
f 164/1/5 158/1/5 163/1/5
f 165/1/5 162/1/5 161/1/5
f 166/1/5 162/1/5 165/1/5
f 167/1/5 158/1/5 164/1/5
f 168/1/5 158/1/5 167/1/5
f 169/1/5 165/1/5 161/1/5
f 170/1/5 165/1/5 169/1/5
f 173/1/5 172/1/5 171/1/5
f 174/1/5 172/1/5 173/1/5
f 175/1/5 172/1/5 174/1/5
f 176/1/5 172/1/5 175/1/5
f 177/1/5 175/1/5 174/1/5
f 178/1/5 175/1/5 177/1/5
f 179/1/6 180/1/6 183/1/6
f 183/1/6 180/1/6 184/1/6
f 184/1/6 180/1/6 185/1/6
f 181/1/6 182/1/6 186/1/6
f 186/1/6 182/1/6 187/1/6
f 187/1/6 182/1/6 188/1/6
f 184/1/6 185/1/6 189/1/6
f 189/1/6 185/1/6 190/1/6
f 186/1/6 187/1/6 193/1/6
f 193/1/6 187/1/6 194/1/6
f 191/1/6 192/1/6 195/1/6
f 192/1/6 193/1/6 195/1/6
f 190/1/6 191/1/6 195/1/6
f 195/1/6 193/1/6 196/1/6
f 197/1/6 198/1/6 199/1/6
f 199/1/6 198/1/6 200/1/6
f 200/1/6 198/1/6 201/1/6
f 201/1/6 198/1/6 202/1/6
f 200/1/6 201/1/6 204/1/6
f 204/1/6 201/1/6 205/1/6
f 203/1/6 204/1/6 207/1/6
f 205/1/6 206/1/6 207/1/6
f 204/1/6 205/1/6 207/1/6
f 207/1/6 206/1/6 208/1/6
f 203/1/6 207/1/6 209/1/6
f 208/1/6 206/1/6 210/1/6
f 203/1/6 209/1/6 211/1/6
f 209/1/6 210/1/6 211/1/6
f 211/1/6 210/1/6 212/1/6
f 210/1/6 206/1/6 213/1/6
f 212/1/6 210/1/6 213/1/6
f 213/1/6 206/1/6 214/1/6
f 211/2/6 212/2/6 215/2/6
f 212/1/6 213/1/6 216/1/6
f 215/2/6 212/2/6 216/2/6
f 213/2/6 214/2/6 217/2/6
f 216/1/6 213/1/6 217/1/6
f 217/2/6 214/2/6 218/2/6
f 219/3/6 220/3/6 221/3/6
f 221/3/6 220/3/6 222/3/6
