# MagicaVoxel @ Ephtracy

# group
o 

# material
mtllib bridge.mtl
usemtl palette

# normals
vn -1 0 0
vn 1 0 0
vn 0 0 1
vn 0 0 -1
vn 0 -1 0
vn 0 1 0

# texcoords
vt 0.845703 0.5
vt 0.876953 0.5

# verts
v 0.1 2.2 0
v 0.1 2.2 -0.1
v 0.1 2.2 -0.4
v 0.1 2.2 -0.5
v 0.1 2.6 0
v 0.1 2.6 -0.1
v 0.1 2.6 -0.4
v 0.1 2.6 -0.5
v 0.2 2.3 -0.1
v 0.2 2.3 -0.4
v 0.2 2.4 -0.1
v 0.2 2.4 -0.4
v 0.4 2.1 0
v 0.4 2.1 -0.1
v 0.4 2.1 -0.4
v 0.4 2.1 -0.5
v 0.4 2.2 0
v 0.4 2.2 -0.1
v 0.4 2.2 -0.4
v 0.4 2.2 -0.5
v 0.5 2.2 0
v 0.5 2.2 -0.1
v 0.5 2.2 -0.4
v 0.5 2.2 -0.5
v 0.5 2.3 0
v 0.5 2.3 -0.5
v 0.8 2.2 0
v 0.8 2.2 -0.1
v 0.8 2.2 -0.4
v 0.8 2.2 -0.5
v 0.8 2.3 0
v 0.8 2.3 -0.5
v 1.1 2 0
v 1.1 2 -0.1
v 1.1 2 -0.4
v 1.1 2 -0.5
v 1.1 2.1 0
v 1.1 2.1 -0.1
v 1.1 2.1 -0.2
v 1.1 2.1 -0.4
v 1.1 2.1 -0.5
v 1.1 2.2 -0.2
v 1.1 2.2 -0.4
v 1.2 2.1 -0.1
v 1.2 2.1 -0.2
v 1.2 2.2 -0.1
v 1.2 2.2 -0.2
v 1.4 2.1 0
v 1.4 2.1 -0.1
v 1.4 2.1 -0.4
v 1.4 2.1 -0.5
v 1.4 2.2 0
v 1.4 2.2 -0.5
v 1.7 2.1 0
v 1.7 2.1 -0.1
v 1.7 2.1 -0.4
v 1.7 2.1 -0.5
v 1.7 2.2 0
v 1.7 2.2 -0.5
v 2 2.2 0
v 2 2.2 -0.1
v 2 2.2 -0.4
v 2 2.2 -0.5
v 2 2.3 0
v 2 2.3 -0.5
v 2.3 2.2 0
v 2.3 2.2 -0.1
v 2.3 2.2 -0.4
v 2.3 2.3 0
v 2.3 2.3 -0.4
v 2.4 2.2 -0.4
v 2.4 2.2 -0.5
v 2.4 2.3 -0.4
v 2.4 2.3 -0.5
v 2.6 2.2 -0.4
v 2.6 2.2 -0.5
v 2.6 2.3 -0.1
v 2.6 2.3 -0.4
v 2.6 2.3 -0.5
v 2.6 2.4 -0.1
v 2.6 2.4 -0.5
v 2.7 2.3 0
v 2.7 2.3 -0.1
v 2.7 2.4 0
v 2.7 2.4 -0.1
v 2.8 2.4 0
v 2.8 2.4 -0.1
v 2.8 2.4 -0.4
v 2.8 2.4 -0.5
v 2.8 2.5 0
v 2.8 2.5 -0.1
v 2.8 2.5 -0.4
v 2.8 2.5 -0.5
v 0.2 2.4 0
v 0.2 2.4 -0.1
v 0.2 2.4 -0.4
v 0.2 2.4 -0.5
v 0.2 2.6 0
v 0.2 2.6 -0.1
v 0.2 2.6 -0.4
v 0.2 2.6 -0.5
v 0.3 2.3 -0.3
v 0.3 2.3 -0.4
v 0.3 2.4 -0.3
v 0.3 2.4 -0.4
v 0.4 2.2 0
v 0.4 2.2 -0.1
v 0.4 2.2 -0.4
v 0.4 2.2 -0.5
v 0.4 2.3 0
v 0.4 2.3 -0.1
v 0.4 2.3 -0.3
v 0.4 2.3 -0.4
v 0.4 2.3 -0.5
v 0.4 2.4 0
v 0.4 2.4 -0.3
v 0.4 2.4 -0.4
v 0.4 2.4 -0.5
v 0.7 2.2 0
v 0.7 2.2 -0.1
v 0.7 2.2 -0.4
v 0.7 2.2 -0.5
v 0.7 2.3 0
v 0.7 2.3 -0.5
v 1 2.2 0
v 1 2.2 -0.1
v 1 2.2 -0.4
v 1 2.2 -0.5
v 1 2.3 0
v 1 2.3 -0.5
v 1.3 2.1 0
v 1.3 2.1 -0.1
v 1.3 2.1 -0.4
v 1.3 2.1 -0.5
v 1.3 2.2 0
v 1.3 2.2 -0.5
v 1.6 2.1 0
v 1.6 2.1 -0.1
v 1.6 2.1 -0.4
v 1.6 2.1 -0.5
v 1.6 2.2 0
v 1.6 2.2 -0.5
v 1.9 2 0
v 1.9 2 -0.1
v 1.9 2 -0.4
v 1.9 2 -0.5
v 1.9 2.1 0
v 1.9 2.1 -0.1
v 1.9 2.1 -0.4
v 1.9 2.1 -0.5
v 1.9 2.2 -0.1
v 1.9 2.2 -0.4
v 2.2 2.2 0
v 2.2 2.2 -0.1
v 2.2 2.2 -0.4
v 2.2 2.2 -0.5
v 2.2 2.3 0
v 2.2 2.3 -0.5
v 2.5 2.1 0
v 2.5 2.1 -0.1
v 2.5 2.2 0
v 2.5 2.2 -0.1
v 2.5 2.2 -0.4
v 2.5 2.2 -0.5
v 2.5 2.3 -0.1
v 2.5 2.3 -0.5
v 2.6 2.1 -0.4
v 2.6 2.1 -0.5
v 2.6 2.2 -0.4
v 2.6 2.2 -0.5
v 2.8 2.3 -0.1
v 2.8 2.3 -0.4
v 2.8 2.4 -0.1
v 2.8 2.4 -0.4
v 2.9 2.2 0
v 2.9 2.2 -0.1
v 2.9 2.2 -0.4
v 2.9 2.2 -0.5
v 2.9 2.5 0
v 2.9 2.5 -0.1
v 2.9 2.5 -0.4
v 2.9 2.5 -0.5
v 0.1 2.2 0
v 0.1 2.6 0
v 0.2 2.3 0
v 0.2 2.4 0
v 0.2 2.6 0
v 0.4 2.1 0
v 0.4 2.2 0
v 0.4 2.3 0
v 0.4 2.4 0
v 0.5 2.2 0
v 0.5 2.3 0
v 0.7 2.2 0
v 0.7 2.3 0
v 0.8 2.2 0
v 0.8 2.3 0
v 1 2.2 0
v 1 2.3 0
v 1.1 2 0
v 1.1 2.1 0
v 1.1 2.2 0
v 1.3 2.1 0
v 1.3 2.2 0
v 1.4 2.1 0
v 1.4 2.2 0
v 1.6 2.1 0
v 1.6 2.2 0
v 1.7 2.1 0
v 1.7 2.2 0
v 1.9 2 0
v 1.9 2.1 0
v 1.9 2.2 0
v 2 2.2 0
v 2 2.3 0
v 2.2 2.2 0
v 2.2 2.3 0
v 2.3 2.2 0
v 2.3 2.3 0
v 2.5 2.1 0
v 2.5 2.2 0
v 2.5 2.3 0
v 2.7 2.3 0
v 2.7 2.4 0
v 2.8 2.3 0
v 2.8 2.4 0
v 2.8 2.5 0
v 2.9 2.2 0
v 2.9 2.5 0
v 2.6 2.3 -0.1
v 2.6 2.4 -0.1
v 2.7 2.3 -0.1
v 2.7 2.4 -0.1
v 1.1 2.1 -0.2
v 1.1 2.2 -0.2
v 1.2 2.1 -0.2
v 1.2 2.2 -0.2
v 0.1 2.2 -0.4
v 0.1 2.6 -0.4
v 0.2 2.3 -0.4
v 0.2 2.4 -0.4
v 0.2 2.6 -0.4
v 0.3 2.3 -0.4
v 0.3 2.4 -0.4
v 0.4 2.1 -0.4
v 0.4 2.2 -0.4
v 0.4 2.3 -0.4
v 0.4 2.4 -0.4
v 0.5 2.2 -0.4
v 0.7 2.2 -0.4
v 0.8 2.2 -0.4
v 1 2.2 -0.4
v 1.1 2 -0.4
v 1.1 2.1 -0.4
v 1.1 2.2 -0.4
v 1.3 2.1 -0.4
v 1.4 2.1 -0.4
v 1.6 2.1 -0.4
v 1.7 2.1 -0.4
v 1.9 2 -0.4
v 1.9 2.1 -0.4
v 1.9 2.2 -0.4
v 2 2.2 -0.4
v 2.2 2.2 -0.4
v 2.3 2.2 -0.4
v 2.5 2.2 -0.4
v 2.6 2.1 -0.4
v 2.6 2.2 -0.4
v 2.6 2.3 -0.4
v 2.8 2.3 -0.4
v 2.8 2.4 -0.4
v 2.8 2.5 -0.4
v 2.9 2.2 -0.4
v 2.9 2.5 -0.4
v 0.1 2.2 -0.1
v 0.1 2.6 -0.1
v 0.2 2.3 -0.1
v 0.2 2.4 -0.1
v 0.2 2.6 -0.1
v 0.4 2.1 -0.1
v 0.4 2.2 -0.1
v 0.4 2.3 -0.1
v 0.5 2.2 -0.1
v 0.7 2.2 -0.1
v 0.8 2.2 -0.1
v 1 2.2 -0.1
v 1.1 2 -0.1
v 1.1 2.1 -0.1
v 1.1 2.2 -0.1
v 1.2 2.1 -0.1
v 1.2 2.2 -0.1
v 1.3 2.1 -0.1
v 1.4 2.1 -0.1
v 1.6 2.1 -0.1
v 1.7 2.1 -0.1
v 1.9 2 -0.1
v 1.9 2.1 -0.1
v 1.9 2.2 -0.1
v 2 2.2 -0.1
v 2.2 2.2 -0.1
v 2.3 2.2 -0.1
v 2.5 2.1 -0.1
v 2.5 2.2 -0.1
v 2.5 2.3 -0.1
v 2.6 2.3 -0.1
v 2.8 2.3 -0.1
v 2.8 2.4 -0.1
v 2.8 2.5 -0.1
v 2.9 2.2 -0.1
v 2.9 2.5 -0.1
v 0.3 2.3 -0.3
v 0.3 2.4 -0.3
v 0.4 2.3 -0.3
v 0.4 2.4 -0.3
v 2.3 2.2 -0.4
v 2.3 2.3 -0.4
v 2.4 2.2 -0.4
v 2.4 2.3 -0.4
v 0.1 2.2 -0.5
v 0.1 2.6 -0.5
v 0.2 2.3 -0.5
v 0.2 2.4 -0.5
v 0.2 2.6 -0.5
v 0.4 2.1 -0.5
v 0.4 2.2 -0.5
v 0.4 2.3 -0.5
v 0.4 2.4 -0.5
v 0.5 2.2 -0.5
v 0.5 2.3 -0.5
v 0.7 2.2 -0.5
v 0.7 2.3 -0.5
v 0.8 2.2 -0.5
v 0.8 2.3 -0.5
v 1 2.2 -0.5
v 1 2.3 -0.5
v 1.1 2 -0.5
v 1.1 2.1 -0.5
v 1.1 2.2 -0.5
v 1.3 2.1 -0.5
v 1.3 2.2 -0.5
v 1.4 2.1 -0.5
v 1.4 2.2 -0.5
v 1.6 2.1 -0.5
v 1.6 2.2 -0.5
v 1.7 2.1 -0.5
v 1.7 2.2 -0.5
v 1.9 2 -0.5
v 1.9 2.1 -0.5
v 1.9 2.2 -0.5
v 2 2.2 -0.5
v 2 2.3 -0.5
v 2.2 2.2 -0.5
v 2.2 2.3 -0.5
v 2.4 2.2 -0.5
v 2.4 2.3 -0.5
v 2.5 2.2 -0.5
v 2.5 2.3 -0.5
v 2.6 2.1 -0.5
v 2.6 2.2 -0.5
v 2.6 2.3 -0.5
v 2.6 2.4 -0.5
v 2.8 2.3 -0.5
v 2.8 2.4 -0.5
v 2.8 2.5 -0.5
v 2.9 2.2 -0.5
v 2.9 2.5 -0.5
v 1.1 2 0
v 1.9 2 0
v 1.1 2 -0.1
v 1.9 2 -0.1
v 1.1 2 -0.4
v 1.9 2 -0.4
v 1.1 2 -0.5
v 1.9 2 -0.5
v 0.4 2.1 0
v 1.1 2.1 0
v 1.9 2.1 0
v 2.5 2.1 0
v 0.4 2.1 -0.1
v 1.1 2.1 -0.1
v 1.2 2.1 -0.1
v 1.3 2.1 -0.1
v 1.4 2.1 -0.1
v 1.6 2.1 -0.1
v 1.7 2.1 -0.1
v 1.9 2.1 -0.1
v 2.5 2.1 -0.1
v 1.1 2.1 -0.2
v 1.2 2.1 -0.2
v 0.4 2.1 -0.4
v 1.1 2.1 -0.4
v 1.3 2.1 -0.4
v 1.4 2.1 -0.4
v 1.6 2.1 -0.4
v 1.7 2.1 -0.4
v 1.9 2.1 -0.4
v 2.6 2.1 -0.4
v 0.4 2.1 -0.5
v 1.1 2.1 -0.5
v 1.9 2.1 -0.5
v 2.6 2.1 -0.5
v 0.1 2.2 0
v 0.4 2.2 0
v 2.5 2.2 0
v 2.9 2.2 0
v 0.1 2.2 -0.1
v 0.4 2.2 -0.1
v 0.5 2.2 -0.1
v 0.7 2.2 -0.1
v 0.8 2.2 -0.1
v 1 2.2 -0.1
v 2 2.2 -0.1
v 2.2 2.2 -0.1
v 2.3 2.2 -0.1
v 2.5 2.2 -0.1
v 2.9 2.2 -0.1
v 0.1 2.2 -0.4
v 0.4 2.2 -0.4
v 0.5 2.2 -0.4
v 0.7 2.2 -0.4
v 0.8 2.2 -0.4
v 1 2.2 -0.4
v 2 2.2 -0.4
v 2.2 2.2 -0.4
v 2.3 2.2 -0.4
v 2.5 2.2 -0.4
v 2.6 2.2 -0.4
v 2.9 2.2 -0.4
v 0.1 2.2 -0.5
v 0.4 2.2 -0.5
v 2.6 2.2 -0.5
v 2.9 2.2 -0.5
v 0.2 2.3 -0.1
v 0.4 2.3 -0.1
v 2.6 2.3 -0.1
v 2.8 2.3 -0.1
v 0.3 2.3 -0.3
v 0.4 2.3 -0.3
v 0.2 2.3 -0.4
v 0.3 2.3 -0.4
v 2.6 2.3 -0.4
v 2.8 2.3 -0.4
v 1.3 2.1 0
v 1.4 2.1 0
v 1.6 2.1 0
v 1.7 2.1 0
v 1.3 2.1 -0.1
v 1.4 2.1 -0.1
v 1.6 2.1 -0.1
v 1.7 2.1 -0.1
v 1.3 2.1 -0.4
v 1.4 2.1 -0.4
v 1.6 2.1 -0.4
v 1.7 2.1 -0.4
v 1.3 2.1 -0.5
v 1.4 2.1 -0.5
v 1.6 2.1 -0.5
v 1.7 2.1 -0.5
v 0.4 2.2 0
v 0.5 2.2 0
v 0.7 2.2 0
v 0.8 2.2 0
v 1 2.2 0
v 1.1 2.2 0
v 1.3 2.2 0
v 1.4 2.2 0
v 1.6 2.2 0
v 1.7 2.2 0
v 1.9 2.2 0
v 2 2.2 0
v 2.2 2.2 0
v 2.3 2.2 0
v 0.4 2.2 -0.1
v 0.5 2.2 -0.1
v 0.7 2.2 -0.1
v 0.8 2.2 -0.1
v 1 2.2 -0.1
v 1.1 2.2 -0.1
v 1.2 2.2 -0.1
v 1.9 2.2 -0.1
v 2 2.2 -0.1
v 2.2 2.2 -0.1
v 2.3 2.2 -0.1
v 1.1 2.2 -0.2
v 1.2 2.2 -0.2
v 0.4 2.2 -0.4
v 0.5 2.2 -0.4
v 0.7 2.2 -0.4
v 0.8 2.2 -0.4
v 1 2.2 -0.4
v 1.1 2.2 -0.4
v 1.9 2.2 -0.4
v 2 2.2 -0.4
v 2.2 2.2 -0.4
v 2.3 2.2 -0.4
v 2.4 2.2 -0.4
v 2.5 2.2 -0.4
v 2.6 2.2 -0.4
v 0.4 2.2 -0.5
v 0.5 2.2 -0.5
v 0.7 2.2 -0.5
v 0.8 2.2 -0.5
v 1 2.2 -0.5
v 1.1 2.2 -0.5
v 1.3 2.2 -0.5
v 1.4 2.2 -0.5
v 1.6 2.2 -0.5
v 1.7 2.2 -0.5
v 1.9 2.2 -0.5
v 2 2.2 -0.5
v 2.2 2.2 -0.5
v 2.4 2.2 -0.5
v 2.5 2.2 -0.5
v 2.6 2.2 -0.5
v 0.5 2.3 0
v 0.7 2.3 0
v 0.8 2.3 0
v 1 2.3 0
v 2 2.3 0
v 2.2 2.3 0
v 2.3 2.3 0
v 2.5 2.3 0
v 2.7 2.3 0
v 2.5 2.3 -0.1
v 2.6 2.3 -0.1
v 2.7 2.3 -0.1
v 2.3 2.3 -0.4
v 2.4 2.3 -0.4
v 0.5 2.3 -0.5
v 0.7 2.3 -0.5
v 0.8 2.3 -0.5
v 1 2.3 -0.5
v 2 2.3 -0.5
v 2.2 2.3 -0.5
v 2.4 2.3 -0.5
v 2.5 2.3 -0.5
v 0.2 2.4 0
v 0.4 2.4 0
v 2.7 2.4 0
v 2.8 2.4 0
v 0.2 2.4 -0.1
v 2.6 2.4 -0.1
v 2.7 2.4 -0.1
v 2.8 2.4 -0.1
v 0.3 2.4 -0.3
v 0.4 2.4 -0.3
v 0.2 2.4 -0.4
v 0.3 2.4 -0.4
v 0.4 2.4 -0.4
v 2.8 2.4 -0.4
v 0.2 2.4 -0.5
v 0.4 2.4 -0.5
v 2.6 2.4 -0.5
v 2.8 2.4 -0.5
v 2.8 2.5 0
v 2.9 2.5 0
v 2.8 2.5 -0.1
v 2.9 2.5 -0.1
v 2.8 2.5 -0.4
v 2.9 2.5 -0.4
v 2.8 2.5 -0.5
v 2.9 2.5 -0.5
v 0.1 2.6 0
v 0.2 2.6 0
v 0.1 2.6 -0.1
v 0.2 2.6 -0.1
v 0.1 2.6 -0.4
v 0.2 2.6 -0.4
v 0.1 2.6 -0.5
v 0.2 2.6 -0.5

# faces
f 5/2/1 2/2/1 1/2/1
f 6/2/1 2/2/1 5/2/1
f 7/2/1 4/2/1 3/2/1
f 8/2/1 4/2/1 7/2/1
f 11/1/1 10/1/1 9/1/1
f 12/1/1 10/1/1 11/1/1
f 17/2/1 14/2/1 13/2/1
f 18/2/1 14/2/1 17/2/1
f 19/2/1 16/2/1 15/2/1
f 20/2/1 16/2/1 19/2/1
f 25/1/1 22/1/1 21/1/1
f 25/1/1 24/1/1 23/1/1
f 25/1/1 23/1/1 22/1/1
f 26/1/1 24/1/1 25/1/1
f 31/1/1 28/1/1 27/1/1
f 31/1/1 30/1/1 29/1/1
f 31/1/1 29/1/1 28/1/1
f 32/1/1 30/1/1 31/1/1
f 37/2/1 34/2/1 33/2/1
f 38/2/1 34/2/1 37/2/1
f 40/2/1 36/2/1 35/2/1
f 41/2/1 36/2/1 40/2/1
f 42/1/1 40/1/1 39/1/1
f 43/1/1 40/1/1 42/1/1
f 46/1/1 45/1/1 44/1/1
f 47/1/1 45/1/1 46/1/1
f 52/1/1 49/1/1 48/1/1
f 52/1/1 51/1/1 50/1/1
f 52/1/1 50/1/1 49/1/1
f 53/1/1 51/1/1 52/1/1
f 58/1/1 55/1/1 54/1/1
f 58/1/1 57/1/1 56/1/1
f 58/1/1 56/1/1 55/1/1
f 59/1/1 57/1/1 58/1/1
f 64/1/1 61/1/1 60/1/1
f 64/1/1 63/1/1 62/1/1
f 64/1/1 62/1/1 61/1/1
f 65/1/1 63/1/1 64/1/1
f 69/1/1 67/1/1 66/1/1
f 69/1/1 68/1/1 67/1/1
f 70/1/1 68/1/1 69/1/1
f 73/1/1 72/1/1 71/1/1
f 74/1/1 72/1/1 73/1/1
f 78/2/1 76/2/1 75/2/1
f 79/2/1 76/2/1 78/2/1
f 80/1/1 78/1/1 77/1/1
f 80/1/1 79/1/1 78/1/1
f 81/1/1 79/1/1 80/1/1
f 84/1/1 83/1/1 82/1/1
f 85/1/1 83/1/1 84/1/1
f 90/2/1 87/2/1 86/2/1
f 91/2/1 87/2/1 90/2/1
f 92/2/1 89/2/1 88/2/1
f 93/2/1 89/2/1 92/2/1
f 94/2/2 95/2/2 98/2/2
f 98/2/2 95/2/2 99/2/2
f 96/2/2 97/2/2 100/2/2
f 100/2/2 97/2/2 101/2/2
f 102/1/2 103/1/2 104/1/2
f 104/1/2 103/1/2 105/1/2
f 106/2/2 107/2/2 110/2/2
f 110/2/2 107/2/2 111/2/2
f 108/2/2 109/2/2 113/2/2
f 113/2/2 109/2/2 114/2/2
f 111/1/2 112/1/2 115/1/2
f 110/1/2 111/1/2 115/1/2
f 115/1/2 112/1/2 116/1/2
f 113/1/2 114/1/2 117/1/2
f 117/1/2 114/1/2 118/1/2
f 119/1/2 120/1/2 123/1/2
f 121/1/2 122/1/2 123/1/2
f 120/1/2 121/1/2 123/1/2
f 123/1/2 122/1/2 124/1/2
f 125/1/2 126/1/2 129/1/2
f 127/1/2 128/1/2 129/1/2
f 126/1/2 127/1/2 129/1/2
f 129/1/2 128/1/2 130/1/2
f 131/1/2 132/1/2 135/1/2
f 133/1/2 134/1/2 135/1/2
f 132/1/2 133/1/2 135/1/2
f 135/1/2 134/1/2 136/1/2
f 137/1/2 138/1/2 141/1/2
f 139/1/2 140/1/2 141/1/2
f 138/1/2 139/1/2 141/1/2
f 141/1/2 140/1/2 142/1/2
f 143/2/2 144/2/2 147/2/2
f 147/2/2 144/2/2 148/2/2
f 145/2/2 146/2/2 149/2/2
f 149/2/2 146/2/2 150/2/2
f 148/1/2 149/1/2 151/1/2
f 151/1/2 149/1/2 152/1/2
f 153/1/2 154/1/2 157/1/2
f 155/1/2 156/1/2 157/1/2
f 154/1/2 155/1/2 157/1/2
f 157/1/2 156/1/2 158/1/2
f 159/2/2 160/2/2 161/2/2
f 161/2/2 160/2/2 162/2/2
f 163/1/2 164/1/2 165/1/2
f 162/1/2 163/1/2 165/1/2
f 165/1/2 164/1/2 166/1/2
f 167/2/2 168/2/2 169/2/2
f 169/2/2 168/2/2 170/2/2
f 171/1/2 172/1/2 173/1/2
f 173/1/2 172/1/2 174/1/2
f 175/2/2 176/2/2 179/2/2
f 179/2/2 176/2/2 180/2/2
f 177/2/2 178/2/2 181/2/2
f 181/2/2 178/2/2 182/2/2
f 185/2/3 184/2/3 183/2/3
f 186/2/3 184/2/3 185/2/3
f 187/2/3 184/2/3 186/2/3
f 189/2/3 185/2/3 183/2/3
f 190/1/3 186/1/3 185/1/3
f 190/2/3 185/2/3 189/2/3
f 191/1/3 186/1/3 190/1/3
f 192/2/3 189/2/3 188/2/3
f 194/2/3 192/2/3 188/2/3
f 194/1/3 193/1/3 192/1/3
f 195/1/3 193/1/3 194/1/3
f 196/2/3 194/2/3 188/2/3
f 198/2/3 196/2/3 188/2/3
f 198/1/3 197/1/3 196/1/3
f 199/1/3 197/1/3 198/1/3
f 201/2/3 198/2/3 188/2/3
f 202/2/3 198/2/3 201/2/3
f 203/2/3 201/2/3 200/2/3
f 203/1/3 202/1/3 201/1/3
f 204/1/3 202/1/3 203/1/3
f 205/2/3 203/2/3 200/2/3
f 207/2/3 205/2/3 200/2/3
f 207/1/3 206/1/3 205/1/3
f 208/1/3 206/1/3 207/1/3
f 209/2/3 207/2/3 200/2/3
f 211/2/3 209/2/3 200/2/3
f 212/1/3 210/1/3 209/1/3
f 212/2/3 209/2/3 211/2/3
f 213/1/3 210/1/3 212/1/3
f 214/2/3 213/2/3 212/2/3
f 216/2/3 214/2/3 212/2/3
f 216/1/3 215/1/3 214/1/3
f 217/1/3 215/1/3 216/1/3
f 218/2/3 216/2/3 212/2/3
f 220/2/3 218/2/3 212/2/3
f 221/1/3 219/1/3 218/1/3
f 221/2/3 218/2/3 220/2/3
f 222/1/3 219/1/3 221/1/3
f 223/2/3 222/2/3 221/2/3
f 225/2/3 223/2/3 221/2/3
f 225/1/3 224/1/3 223/1/3
f 226/1/3 224/1/3 225/1/3
f 228/2/3 226/2/3 225/2/3
f 228/2/3 227/2/3 226/2/3
f 228/2/3 225/2/3 221/2/3
f 229/2/3 227/2/3 228/2/3
f 232/1/3 231/1/3 230/1/3
f 233/1/3 231/1/3 232/1/3
f 236/1/3 235/1/3 234/1/3
f 237/1/3 235/1/3 236/1/3
f 240/2/3 239/2/3 238/2/3
f 241/2/3 239/2/3 240/2/3
f 242/2/3 239/2/3 241/2/3
f 243/2/3 240/2/3 238/2/3
f 246/2/3 243/2/3 238/2/3
f 247/1/3 244/1/3 243/1/3
f 247/2/3 243/2/3 246/2/3
f 248/1/3 244/1/3 247/1/3
f 249/2/3 246/2/3 245/2/3
f 250/2/3 249/2/3 245/2/3
f 251/2/3 250/2/3 245/2/3
f 252/2/3 251/2/3 245/2/3
f 254/2/3 252/2/3 245/2/3
f 255/2/3 252/2/3 254/2/3
f 256/2/3 254/2/3 253/2/3
f 257/2/3 256/2/3 253/2/3
f 258/2/3 257/2/3 253/2/3
f 259/2/3 258/2/3 253/2/3
f 260/2/3 259/2/3 253/2/3
f 261/2/3 259/2/3 260/2/3
f 263/2/3 262/2/3 261/2/3
f 264/2/3 263/2/3 261/2/3
f 265/2/3 264/2/3 261/2/3
f 266/2/3 265/2/3 261/2/3
f 267/2/3 266/2/3 261/2/3
f 268/2/3 266/2/3 267/2/3
f 270/2/3 269/2/3 268/2/3
f 273/2/3 271/2/3 270/2/3
f 273/2/3 272/2/3 271/2/3
f 273/2/3 270/2/3 268/2/3
f 274/2/3 272/2/3 273/2/3
f 275/2/4 276/2/4 277/2/4
f 277/2/4 276/2/4 278/2/4
f 278/2/4 276/2/4 279/2/4
f 275/2/4 277/2/4 281/2/4
f 281/2/4 277/2/4 282/2/4
f 280/2/4 281/2/4 283/2/4
f 280/2/4 283/2/4 284/2/4
f 280/2/4 284/2/4 285/2/4
f 280/2/4 285/2/4 286/2/4
f 280/2/4 286/2/4 288/2/4
f 288/2/4 286/2/4 289/2/4
f 287/2/4 288/2/4 290/2/4
f 288/1/4 289/1/4 290/1/4
f 290/1/4 289/1/4 291/1/4
f 287/2/4 290/2/4 292/2/4
f 287/2/4 292/2/4 293/2/4
f 287/2/4 293/2/4 294/2/4
f 287/2/4 294/2/4 295/2/4
f 287/2/4 295/2/4 296/2/4
f 296/2/4 295/2/4 297/2/4
f 297/2/4 298/2/4 299/2/4
f 297/2/4 299/2/4 300/2/4
f 297/2/4 300/2/4 301/2/4
f 297/2/4 301/2/4 302/2/4
f 302/2/4 301/2/4 303/2/4
f 303/2/4 304/2/4 305/2/4
f 303/2/4 305/2/4 306/2/4
f 303/2/4 306/2/4 309/2/4
f 307/2/4 308/2/4 309/2/4
f 306/2/4 307/2/4 309/2/4
f 309/2/4 308/2/4 310/2/4
f 311/1/4 312/1/4 313/1/4
f 313/1/4 312/1/4 314/1/4
f 315/1/4 316/1/4 317/1/4
f 317/1/4 316/1/4 318/1/4
f 319/2/4 320/2/4 321/2/4
f 321/2/4 320/2/4 322/2/4
f 322/2/4 320/2/4 323/2/4
f 319/2/4 321/2/4 325/2/4
f 321/1/4 322/1/4 326/1/4
f 325/2/4 321/2/4 326/2/4
f 326/1/4 322/1/4 327/1/4
f 324/2/4 325/2/4 328/2/4
f 324/2/4 328/2/4 330/2/4
f 328/1/4 329/1/4 330/1/4
f 330/1/4 329/1/4 331/1/4
f 324/2/4 330/2/4 332/2/4
f 324/2/4 332/2/4 334/2/4
f 332/1/4 333/1/4 334/1/4
f 334/1/4 333/1/4 335/1/4
f 324/2/4 334/2/4 337/2/4
f 337/2/4 334/2/4 338/2/4
f 336/2/4 337/2/4 339/2/4
f 337/1/4 338/1/4 339/1/4
f 339/1/4 338/1/4 340/1/4
f 336/2/4 339/2/4 341/2/4
f 336/2/4 341/2/4 343/2/4
f 341/1/4 342/1/4 343/1/4
f 343/1/4 342/1/4 344/1/4
f 336/2/4 343/2/4 345/2/4
f 336/2/4 345/2/4 347/2/4
f 345/1/4 346/1/4 348/1/4
f 347/2/4 345/2/4 348/2/4
f 348/1/4 346/1/4 349/1/4
f 348/2/4 349/2/4 350/2/4
f 348/2/4 350/2/4 352/2/4
f 350/1/4 351/1/4 352/1/4
f 352/1/4 351/1/4 353/1/4
f 348/2/4 352/2/4 354/2/4
f 348/2/4 354/2/4 356/2/4
f 354/1/4 355/1/4 356/1/4
f 356/1/4 355/1/4 357/1/4
f 348/2/4 356/2/4 358/2/4
f 358/2/4 356/2/4 359/2/4
f 359/2/4 360/2/4 362/2/4
f 360/1/4 361/1/4 362/1/4
f 362/1/4 361/1/4 363/1/4
f 362/2/4 363/2/4 365/2/4
f 363/2/4 364/2/4 365/2/4
f 359/2/4 362/2/4 365/2/4
f 365/2/4 364/2/4 366/2/4
f 369/2/5 368/2/5 367/2/5
f 370/2/5 368/2/5 369/2/5
f 373/2/5 372/2/5 371/2/5
f 374/2/5 372/2/5 373/2/5
f 379/2/5 376/2/5 375/2/5
f 380/2/5 376/2/5 379/2/5
f 386/2/5 378/2/5 377/2/5
f 387/2/5 378/2/5 386/2/5
f 389/1/5 382/1/5 381/1/5
f 391/1/5 389/1/5 388/1/5
f 392/1/5 382/1/5 389/1/5
f 392/1/5 389/1/5 391/1/5
f 393/1/5 384/1/5 383/1/5
f 394/1/5 384/1/5 393/1/5
f 395/1/5 386/1/5 385/1/5
f 396/1/5 386/1/5 395/1/5
f 398/2/5 391/2/5 390/2/5
f 399/2/5 391/2/5 398/2/5
f 400/2/5 397/2/5 396/2/5
f 401/2/5 397/2/5 400/2/5
f 406/2/5 403/2/5 402/2/5
f 407/2/5 403/2/5 406/2/5
f 415/2/5 405/2/5 404/2/5
f 416/2/5 405/2/5 415/2/5
f 419/1/5 409/1/5 408/1/5
f 420/1/5 409/1/5 419/1/5
f 421/1/5 411/1/5 410/1/5
f 422/1/5 411/1/5 421/1/5
f 423/1/5 413/1/5 412/1/5
f 424/1/5 413/1/5 423/1/5
f 425/1/5 415/1/5 414/1/5
f 426/1/5 415/1/5 425/1/5
f 429/2/5 418/2/5 417/2/5
f 430/2/5 418/2/5 429/2/5
f 431/2/5 428/2/5 427/2/5
f 432/2/5 428/2/5 431/2/5
f 437/1/5 434/1/5 433/1/5
f 438/1/5 434/1/5 437/1/5
f 439/1/5 437/1/5 433/1/5
f 440/1/5 437/1/5 439/1/5
f 441/1/5 436/1/5 435/1/5
f 442/1/5 436/1/5 441/1/5
f 443/2/6 444/2/6 447/2/6
f 447/2/6 444/2/6 448/2/6
f 445/2/6 446/2/6 449/2/6
f 449/2/6 446/2/6 450/2/6
f 451/2/6 452/2/6 455/2/6
f 455/2/6 452/2/6 456/2/6
f 453/2/6 454/2/6 457/2/6
f 457/2/6 454/2/6 458/2/6
f 459/2/6 460/2/6 473/2/6
f 473/2/6 460/2/6 474/2/6
f 461/2/6 462/2/6 475/2/6
f 475/2/6 462/2/6 476/2/6
f 463/2/6 464/2/6 477/2/6
f 464/1/6 465/1/6 478/1/6
f 477/2/6 464/2/6 478/2/6
f 478/1/6 465/1/6 479/1/6
f 468/1/6 469/1/6 480/1/6
f 469/2/6 470/2/6 480/2/6
f 480/2/6 470/2/6 481/2/6
f 471/2/6 472/2/6 482/2/6
f 482/2/6 472/2/6 483/2/6
f 479/1/6 465/1/6 485/1/6
f 484/1/6 485/1/6 491/1/6
f 468/1/6 480/1/6 492/1/6
f 486/2/6 487/2/6 499/2/6
f 499/2/6 487/2/6 500/2/6
f 488/2/6 489/2/6 501/2/6
f 501/2/6 489/2/6 502/2/6
f 490/2/6 491/2/6 503/2/6
f 491/1/6 485/1/6 504/1/6
f 503/2/6 491/2/6 504/2/6
f 485/1/6 465/1/6 505/1/6
f 504/1/6 485/1/6 505/1/6
f 466/1/6 467/1/6 506/1/6
f 506/1/6 467/1/6 507/1/6
f 468/1/6 492/1/6 508/1/6
f 492/2/6 493/2/6 509/2/6
f 508/1/6 492/1/6 509/1/6
f 509/2/6 493/2/6 510/2/6
f 494/2/6 495/2/6 511/2/6
f 495/2/6 496/2/6 511/2/6
f 511/2/6 496/2/6 512/2/6
f 497/2/6 498/2/6 513/2/6
f 513/2/6 498/2/6 514/2/6
f 521/1/6 522/1/6 524/1/6
f 522/2/6 523/2/6 524/2/6
f 524/2/6 523/2/6 525/2/6
f 525/2/6 523/2/6 526/2/6
f 521/1/6 524/1/6 527/1/6
f 527/1/6 524/1/6 528/1/6
f 515/1/6 516/1/6 529/1/6
f 529/1/6 516/1/6 530/1/6
f 517/1/6 518/1/6 531/1/6
f 531/1/6 518/1/6 532/1/6
f 519/1/6 520/1/6 533/1/6
f 533/1/6 520/1/6 534/1/6
f 528/1/6 524/1/6 535/1/6
f 535/1/6 524/1/6 536/1/6
f 537/1/6 538/1/6 541/1/6
f 539/1/6 540/1/6 543/1/6
f 543/1/6 540/1/6 544/1/6
f 541/1/6 538/1/6 545/1/6
f 545/1/6 538/1/6 546/1/6
f 541/1/6 545/1/6 547/1/6
f 547/1/6 545/1/6 548/1/6
f 542/1/6 543/1/6 550/1/6
f 543/1/6 544/1/6 550/1/6
f 548/1/6 549/1/6 551/1/6
f 547/1/6 548/1/6 551/1/6
f 551/1/6 549/1/6 552/1/6
f 542/1/6 550/1/6 553/1/6
f 553/1/6 550/1/6 554/1/6
f 555/2/6 556/2/6 557/2/6
f 557/2/6 556/2/6 558/2/6
f 559/2/6 560/2/6 561/2/6
f 561/2/6 560/2/6 562/2/6
f 563/2/6 564/2/6 565/2/6
f 565/2/6 564/2/6 566/2/6
f 567/2/6 568/2/6 569/2/6
f 569/2/6 568/2/6 570/2/6
