# MagicaVoxel @ Ephtracy

# group
o 

# material
mtllib greenhouse.mtl
usemtl palette

# normals
vn -1 0 0
vn 1 0 0
vn 0 0 1
vn 0 0 -1
vn 0 -1 0
vn 0 1 0

# texcoords
vt 0.830078 0.5
vt 0.861328 0.5

# verts
v -0.7 -0.4 0.3
v -0.7 -0.4 -0.2
v -0.7 -0.3 -0.2
v -0.7 -0.3 -0.3
v -0.7 -0.2 -0.3
v -0.7 -0.2 -0.4
v -0.7 -0.1 -0.4
v -0.7 -0.1 -0.5
v -0.7 0.2 -0.4
v -0.7 0.2 -0.5
v -0.7 0.3 -0.3
v -0.7 0.3 -0.4
v -0.7 0.4 -0.2
v -0.7 0.4 -0.3
v -0.7 0.5 0.3
v -0.7 0.5 -0.2
v 1 -0.4 0.3
v 1 -0.4 -0.2
v 1 -0.3 -0.2
v 1 -0.3 -0.3
v 1 -0.2 -0.3
v 1 -0.2 -0.4
v 1 -0.1 -0.4
v 1 -0.1 -0.5
v 1 0.2 -0.4
v 1 0.2 -0.5
v 1 0.3 -0.3
v 1 0.3 -0.4
v 1 0.4 -0.2
v 1 0.4 -0.3
v 1 0.5 0.3
v 1 0.5 -0.2
v -0.7 -0.4 0.3
v -0.7 0.5 0.3
v -0.5 -0.4 0.3
v -0.5 -0.3 0.3
v -0.4 -0.4 0.3
v -0.4 -0.3 0.3
v -0.2 -0.4 0.3
v -0.2 -0.3 0.3
v -0.1 -0.4 0.3
v -0.1 -0.3 0.3
v 0.2 -0.4 0.3
v 0.2 -0.3 0.3
v 0.3 -0.4 0.3
v 0.3 -0.3 0.3
v 0.6 -0.4 0.3
v 0.6 -0.3 0.3
v 0.7 -0.4 0.3
v 0.7 -0.3 0.3
v 1 -0.4 0.3
v 1 0.5 0.3
v -0.7 -0.4 -0.2
v -0.7 -0.3 -0.2
v -0.7 0.4 -0.2
v -0.7 0.5 -0.2
v -0.5 0.4 -0.2
v -0.3 -0.3 -0.2
v -0.3 0.4 -0.2
v -0.1 -0.3 -0.2
v 0.2 0.4 -0.2
v 0.3 0.4 -0.2
v 0.4 -0.3 -0.2
v 0.5 -0.3 -0.2
v 0.6 0.4 -0.2
v 0.7 -0.3 -0.2
v 0.7 0.4 -0.2
v 0.8 -0.3 -0.2
v 1 -0.4 -0.2
v 1 -0.3 -0.2
v 1 0.4 -0.2
v 1 0.5 -0.2
v -0.7 -0.3 -0.3
v -0.7 -0.2 -0.3
v -0.7 0.3 -0.3
v -0.7 0.4 -0.3
v -0.5 0.3 -0.3
v -0.5 0.4 -0.3
v -0.4 -0.2 -0.3
v -0.4 0.3 -0.3
v -0.3 -0.3 -0.3
v -0.3 -0.2 -0.3
v -0.3 0.3 -0.3
v -0.3 0.4 -0.3
v -0.2 -0.2 -0.3
v -0.2 0.3 -0.3
v -0.1 -0.3 -0.3
v -0.1 -0.2 -0.3
v 0.2 0.3 -0.3
v 0.2 0.4 -0.3
v 0.3 -0.2 -0.3
v 0.3 0.3 -0.3
v 0.3 0.4 -0.3
v 0.4 -0.3 -0.3
v 0.4 -0.2 -0.3
v 0.4 0.3 -0.3
v 0.5 -0.3 -0.3
v 0.5 -0.2 -0.3
v 0.6 -0.2 -0.3
v 0.6 0.3 -0.3
v 0.6 0.4 -0.3
v 0.7 -0.3 -0.3
v 0.7 -0.2 -0.3
v 0.7 0.3 -0.3
v 0.7 0.4 -0.3
v 0.8 -0.3 -0.3
v 0.8 -0.2 -0.3
v 0.8 0.3 -0.3
v 1 -0.3 -0.3
v 1 -0.2 -0.3
v 1 0.3 -0.3
v 1 0.4 -0.3
v -0.7 -0.2 -0.4
v -0.7 -0.1 -0.4
v -0.7 0.2 -0.4
v -0.7 0.3 -0.4
v -0.5 -0.1 -0.4
v -0.4 -0.2 -0.4
v -0.4 -0.1 -0.4
v -0.4 0.2 -0.4
v -0.4 0.3 -0.4
v -0.3 -0.1 -0.4
v -0.3 0.2 -0.4
v -0.2 -0.2 -0.4
v -0.2 -0.1 -0.4
v -0.2 0.2 -0.4
v -0.2 0.3 -0.4
v -0.1 0.2 -0.4
v 0.2 -0.1 -0.4
v 0.3 -0.2 -0.4
v 0.3 -0.1 -0.4
v 0.3 0.2 -0.4
v 0.3 0.3 -0.4
v 0.4 -0.2 -0.4
v 0.4 -0.1 -0.4
v 0.4 0.2 -0.4
v 0.4 0.3 -0.4
v 0.5 -0.1 -0.4
v 0.5 0.2 -0.4
v 0.6 -0.2 -0.4
v 0.6 -0.1 -0.4
v 0.7 -0.2 -0.4
v 0.7 -0.1 -0.4
v 0.7 0.2 -0.4
v 0.7 0.3 -0.4
v 0.8 0.2 -0.4
v 0.8 0.3 -0.4
v 0.9 0.2 -0.4
v 1 -0.2 -0.4
v 1 -0.1 -0.4
v 1 0.2 -0.4
v 1 0.3 -0.4
v -0.7 -0.1 -0.5
v -0.7 0.2 -0.5
v -0.5 -0.1 -0.5
v -0.5 0 -0.5
v -0.3 -0.1 -0.5
v -0.3 0 -0.5
v -0.3 0.1 -0.5
v -0.3 0.2 -0.5
v -0.1 0.1 -0.5
v -0.1 0.2 -0.5
v 0.2 -0.1 -0.5
v 0.2 0 -0.5
v 0.3 -0.1 -0.5
v 0.3 0 -0.5
v 0.4 0.1 -0.5
v 0.4 0.2 -0.5
v 0.5 -0.1 -0.5
v 0.5 0 -0.5
v 0.5 0.1 -0.5
v 0.5 0.2 -0.5
v 0.6 -0.1 -0.5
v 0.6 0 -0.5
v 0.8 0.1 -0.5
v 0.8 0.2 -0.5
v 0.9 0.1 -0.5
v 0.9 0.2 -0.5
v 1 -0.1 -0.5
v 1 0.2 -0.5
v -0.7 -0.4 0.3
v -0.5 -0.4 0.3
v -0.4 -0.4 0.3
v -0.2 -0.4 0.3
v -0.1 -0.4 0.3
v 0.2 -0.4 0.3
v 0.3 -0.4 0.3
v 0.6 -0.4 0.3
v 0.7 -0.4 0.3
v 1 -0.4 0.3
v -0.6 -0.4 0.2
v -0.5 -0.4 0.2
v -0.4 -0.4 0.2
v -0.3 -0.4 0.2
v -0.2 -0.4 0.2
v -0.1 -0.4 0.2
v 0.2 -0.4 0.2
v 0.3 -0.4 0.2
v 0.5 -0.4 0.2
v 0.6 -0.4 0.2
v 0.7 -0.4 0.2
v -0.6 -0.4 0.1
v -0.5 -0.4 0.1
v -0.4 -0.4 0.1
v -0.3 -0.4 0.1
v -0.2 -0.4 0.1
v 0.4 -0.4 0.1
v 0.5 -0.4 0.1
v 0.6 -0.4 0.1
v -0.5 -0.4 0
v -0.4 -0.4 0
v -0.3 -0.4 0
v 0.3 -0.4 0
v 0.4 -0.4 0
v 0.5 -0.4 0
v -0.5 -0.4 -0.1
v -0.4 -0.4 -0.1
v 0.3 -0.4 -0.1
v 0.4 -0.4 -0.1
v -0.7 -0.4 -0.2
v 1 -0.4 -0.2
v -0.7 -0.3 -0.2
v -0.3 -0.3 -0.2
v -0.1 -0.3 -0.2
v 0.4 -0.3 -0.2
v 0.5 -0.3 -0.2
v 0.7 -0.3 -0.2
v 0.8 -0.3 -0.2
v 1 -0.3 -0.2
v -0.7 -0.3 -0.3
v -0.3 -0.3 -0.3
v -0.1 -0.3 -0.3
v 0.4 -0.3 -0.3
v 0.5 -0.3 -0.3
v 0.7 -0.3 -0.3
v 0.8 -0.3 -0.3
v 1 -0.3 -0.3
v -0.7 -0.2 -0.3
v -0.4 -0.2 -0.3
v -0.3 -0.2 -0.3
v -0.2 -0.2 -0.3
v -0.1 -0.2 -0.3
v 0.3 -0.2 -0.3
v 0.4 -0.2 -0.3
v 0.5 -0.2 -0.3
v 0.6 -0.2 -0.3
v 0.7 -0.2 -0.3
v 0.8 -0.2 -0.3
v 1 -0.2 -0.3
v -0.7 -0.2 -0.4
v -0.4 -0.2 -0.4
v -0.2 -0.2 -0.4
v 0.3 -0.2 -0.4
v 0.4 -0.2 -0.4
v 0.6 -0.2 -0.4
v 0.7 -0.2 -0.4
v 1 -0.2 -0.4
v -0.7 -0.1 -0.4
v -0.5 -0.1 -0.4
v -0.4 -0.1 -0.4
v -0.3 -0.1 -0.4
v -0.2 -0.1 -0.4
v 0.2 -0.1 -0.4
v 0.3 -0.1 -0.4
v 0.4 -0.1 -0.4
v 0.5 -0.1 -0.4
v 0.6 -0.1 -0.4
v 0.7 -0.1 -0.4
v 1 -0.1 -0.4
v -0.7 -0.1 -0.5
v -0.5 -0.1 -0.5
v -0.3 -0.1 -0.5
v 0.2 -0.1 -0.5
v 0.3 -0.1 -0.5
v 0.5 -0.1 -0.5
v 0.6 -0.1 -0.5
v 1 -0.1 -0.5
v -0.7 0.2 -0.4
v -0.4 0.2 -0.4
v -0.3 0.2 -0.4
v -0.2 0.2 -0.4
v -0.1 0.2 -0.4
v 0.3 0.2 -0.4
v 0.4 0.2 -0.4
v 0.5 0.2 -0.4
v 0.7 0.2 -0.4
v 0.8 0.2 -0.4
v 0.9 0.2 -0.4
v 1 0.2 -0.4
v -0.7 0.2 -0.5
v -0.3 0.2 -0.5
v -0.1 0.2 -0.5
v 0.4 0.2 -0.5
v 0.5 0.2 -0.5
v 0.8 0.2 -0.5
v 0.9 0.2 -0.5
v 1 0.2 -0.5
v -0.7 0.3 -0.3
v -0.5 0.3 -0.3
v -0.4 0.3 -0.3
v -0.3 0.3 -0.3
v -0.2 0.3 -0.3
v 0.2 0.3 -0.3
v 0.3 0.3 -0.3
v 0.4 0.3 -0.3
v 0.6 0.3 -0.3
v 0.7 0.3 -0.3
v 0.8 0.3 -0.3
v 1 0.3 -0.3
v -0.7 0.3 -0.4
v -0.4 0.3 -0.4
v -0.2 0.3 -0.4
v 0.3 0.3 -0.4
v 0.4 0.3 -0.4
v 0.7 0.3 -0.4
v 0.8 0.3 -0.4
v 1 0.3 -0.4
v -0.7 0.4 -0.2
v -0.5 0.4 -0.2
v -0.3 0.4 -0.2
v 0.2 0.4 -0.2
v 0.3 0.4 -0.2
v 0.6 0.4 -0.2
v 0.7 0.4 -0.2
v 1 0.4 -0.2
v -0.7 0.4 -0.3
v -0.5 0.4 -0.3
v -0.3 0.4 -0.3
v 0.2 0.4 -0.3
v 0.3 0.4 -0.3
v 0.6 0.4 -0.3
v 0.7 0.4 -0.3
v 1 0.4 -0.3
v -0.7 0.5 0.3
v 1 0.5 0.3
v -0.7 0.5 -0.2
v 1 0.5 -0.2

# faces
f 3/2/1 2/2/1 1/2/1
f 5/2/1 4/2/1 3/2/1
f 7/2/1 6/2/1 5/2/1
f 9/2/1 7/2/1 5/2/1
f 9/2/1 8/2/1 7/2/1
f 10/2/1 8/2/1 9/2/1
f 11/2/1 5/2/1 3/2/1
f 11/2/1 9/2/1 5/2/1
f 12/2/1 9/2/1 11/2/1
f 13/2/1 3/2/1 1/2/1
f 13/2/1 11/2/1 3/2/1
f 14/2/1 11/2/1 13/2/1
f 15/2/1 13/2/1 1/2/1
f 16/2/1 13/2/1 15/2/1
f 17/2/2 18/2/2 19/2/2
f 19/2/2 20/2/2 21/2/2
f 21/2/2 22/2/2 23/2/2
f 21/2/2 23/2/2 25/2/2
f 23/2/2 24/2/2 25/2/2
f 25/2/2 24/2/2 26/2/2
f 19/2/2 21/2/2 27/2/2
f 21/2/2 25/2/2 27/2/2
f 27/2/2 25/2/2 28/2/2
f 17/2/2 19/2/2 29/2/2
f 19/2/2 27/2/2 29/2/2
f 29/2/2 27/2/2 30/2/2
f 17/2/2 29/2/2 31/2/2
f 31/2/2 29/2/2 32/2/2
f 35/2/3 34/2/3 33/2/3
f 36/2/3 34/2/3 35/2/3
f 37/1/3 36/1/3 35/1/3
f 38/2/3 34/2/3 36/2/3
f 38/1/3 36/1/3 37/1/3
f 39/2/3 38/2/3 37/2/3
f 40/2/3 34/2/3 38/2/3
f 40/2/3 38/2/3 39/2/3
f 41/1/3 40/1/3 39/1/3
f 42/2/3 34/2/3 40/2/3
f 42/1/3 40/1/3 41/1/3
f 43/2/3 42/2/3 41/2/3
f 44/2/3 34/2/3 42/2/3
f 44/2/3 42/2/3 43/2/3
f 45/1/3 44/1/3 43/1/3
f 46/2/3 34/2/3 44/2/3
f 46/1/3 44/1/3 45/1/3
f 47/2/3 46/2/3 45/2/3
f 48/2/3 34/2/3 46/2/3
f 48/2/3 46/2/3 47/2/3
f 49/1/3 48/1/3 47/1/3
f 50/2/3 34/2/3 48/2/3
f 50/1/3 48/1/3 49/1/3
f 51/2/3 50/2/3 49/2/3
f 52/2/3 34/2/3 50/2/3
f 52/2/3 50/2/3 51/2/3
f 55/2/4 56/2/4 57/2/4
f 53/2/4 54/2/4 58/2/4
f 57/2/4 56/2/4 59/2/4
f 53/2/4 58/2/4 60/2/4
f 59/2/4 56/2/4 61/2/4
f 61/2/4 56/2/4 62/2/4
f 53/2/4 60/2/4 63/2/4
f 53/2/4 63/2/4 64/2/4
f 62/2/4 56/2/4 65/2/4
f 53/2/4 64/2/4 66/2/4
f 65/2/4 56/2/4 67/2/4
f 53/2/4 66/2/4 68/2/4
f 53/2/4 68/2/4 69/2/4
f 69/2/4 68/2/4 70/2/4
f 67/2/4 56/2/4 71/2/4
f 71/2/4 56/2/4 72/2/4
f 75/2/4 76/2/4 77/2/4
f 77/2/4 76/2/4 78/2/4
f 73/2/4 74/2/4 79/2/4
f 77/1/4 78/1/4 80/1/4
f 73/2/4 79/2/4 81/2/4
f 81/2/4 79/2/4 82/2/4
f 80/1/4 78/1/4 83/1/4
f 83/1/4 78/1/4 84/1/4
f 81/1/4 82/1/4 85/1/4
f 83/2/4 84/2/4 86/2/4
f 81/1/4 85/1/4 87/1/4
f 87/1/4 85/1/4 88/1/4
f 86/2/4 84/2/4 89/2/4
f 89/2/4 84/2/4 90/2/4
f 87/2/4 88/2/4 91/2/4
f 89/1/4 90/1/4 92/1/4
f 92/1/4 90/1/4 93/1/4
f 87/2/4 91/2/4 94/2/4
f 94/2/4 91/2/4 95/2/4
f 92/2/4 93/2/4 96/2/4
f 94/1/4 95/1/4 97/1/4
f 97/1/4 95/1/4 98/1/4
f 97/2/4 98/2/4 99/2/4
f 96/2/4 93/2/4 100/2/4
f 100/2/4 93/2/4 101/2/4
f 97/2/4 99/2/4 102/2/4
f 102/2/4 99/2/4 103/2/4
f 100/1/4 101/1/4 104/1/4
f 104/1/4 101/1/4 105/1/4
f 102/1/4 103/1/4 106/1/4
f 106/1/4 103/1/4 107/1/4
f 104/2/4 105/2/4 108/2/4
f 106/2/4 107/2/4 109/2/4
f 109/2/4 107/2/4 110/2/4
f 108/2/4 105/2/4 111/2/4
f 111/2/4 105/2/4 112/2/4
f 113/2/4 114/2/4 117/2/4
f 113/2/4 117/2/4 118/2/4
f 118/2/4 117/2/4 119/2/4
f 115/2/4 116/2/4 120/2/4
f 120/2/4 116/2/4 121/2/4
f 118/1/4 119/1/4 122/1/4
f 120/1/4 121/1/4 123/1/4
f 118/1/4 122/1/4 124/1/4
f 124/1/4 122/1/4 125/1/4
f 123/1/4 121/1/4 126/1/4
f 126/1/4 121/1/4 127/1/4
f 126/2/4 127/2/4 128/2/4
f 124/2/4 125/2/4 129/2/4
f 124/2/4 129/2/4 130/2/4
f 130/2/4 129/2/4 131/2/4
f 128/2/4 127/2/4 132/2/4
f 132/2/4 127/2/4 133/2/4
f 130/1/4 131/1/4 134/1/4
f 134/1/4 131/1/4 135/1/4
f 132/1/4 133/1/4 136/1/4
f 136/1/4 133/1/4 137/1/4
f 134/2/4 135/2/4 138/2/4
f 136/2/4 137/2/4 139/2/4
f 134/2/4 138/2/4 140/2/4
f 140/2/4 138/2/4 141/2/4
f 140/1/4 141/1/4 142/1/4
f 142/1/4 141/1/4 143/1/4
f 139/2/4 137/2/4 144/2/4
f 144/2/4 137/2/4 145/2/4
f 144/1/4 145/1/4 146/1/4
f 146/1/4 145/1/4 147/1/4
f 146/2/4 147/2/4 148/2/4
f 142/2/4 143/2/4 149/2/4
f 149/2/4 143/2/4 150/2/4
f 148/2/4 147/2/4 151/2/4
f 151/2/4 147/2/4 152/2/4
f 153/2/4 154/2/4 155/2/4
f 155/2/4 154/2/4 156/2/4
f 155/1/4 156/1/4 157/1/4
f 156/2/4 154/2/4 158/2/4
f 157/1/4 156/1/4 158/1/4
f 158/2/4 154/2/4 159/2/4
f 159/2/4 154/2/4 160/2/4
f 157/2/4 158/2/4 161/2/4
f 158/2/4 159/2/4 161/2/4
f 159/1/4 160/1/4 161/1/4
f 161/1/4 160/1/4 162/1/4
f 157/2/4 161/2/4 163/2/4
f 161/2/4 162/2/4 163/2/4
f 163/2/4 162/2/4 164/2/4
f 163/1/4 164/1/4 165/1/4
f 164/2/4 162/2/4 166/2/4
f 165/1/4 164/1/4 166/1/4
f 165/2/4 166/2/4 167/2/4
f 166/2/4 162/2/4 167/2/4
f 167/2/4 162/2/4 168/2/4
f 165/2/4 167/2/4 169/2/4
f 169/2/4 167/2/4 170/2/4
f 167/1/4 168/1/4 171/1/4
f 170/2/4 167/2/4 171/2/4
f 171/1/4 168/1/4 172/1/4
f 169/1/4 170/1/4 173/1/4
f 170/2/4 171/2/4 174/2/4
f 173/1/4 170/1/4 174/1/4
f 171/2/4 172/2/4 174/2/4
f 173/2/4 174/2/4 175/2/4
f 174/2/4 172/2/4 175/2/4
f 175/2/4 172/2/4 176/2/4
f 173/2/4 175/2/4 177/2/4
f 175/1/4 176/1/4 177/1/4
f 177/1/4 176/1/4 178/1/4
f 173/2/4 177/2/4 179/2/4
f 177/2/4 178/2/4 179/2/4
f 179/2/4 178/2/4 180/2/4
f 191/2/5 182/2/5 181/2/5
f 192/1/5 183/1/5 182/1/5
f 192/2/5 182/2/5 191/2/5
f 193/2/5 184/2/5 183/2/5
f 193/1/5 183/1/5 192/1/5
f 194/2/5 184/2/5 193/2/5
f 195/1/5 185/1/5 184/1/5
f 195/2/5 184/2/5 194/2/5
f 196/2/5 186/2/5 185/2/5
f 196/1/5 185/1/5 195/1/5
f 197/1/5 187/1/5 186/1/5
f 197/2/5 186/2/5 196/2/5
f 198/2/5 188/2/5 187/2/5
f 198/1/5 187/1/5 197/1/5
f 199/2/5 188/2/5 198/2/5
f 200/1/5 189/1/5 188/1/5
f 200/2/5 188/2/5 199/2/5
f 201/2/5 190/2/5 189/2/5
f 201/1/5 189/1/5 200/1/5
f 202/2/5 191/2/5 181/2/5
f 202/1/5 192/1/5 191/1/5
f 203/2/5 194/2/5 193/2/5
f 203/1/5 192/1/5 202/1/5
f 203/2/5 193/2/5 192/2/5
f 204/2/5 194/2/5 203/2/5
f 205/1/5 195/1/5 194/1/5
f 205/2/5 194/2/5 204/2/5
f 206/2/5 196/2/5 195/2/5
f 206/1/5 195/1/5 205/1/5
f 206/2/5 197/2/5 196/2/5
f 206/2/5 199/2/5 198/2/5
f 206/2/5 198/2/5 197/2/5
f 207/2/5 199/2/5 206/2/5
f 208/1/5 200/1/5 199/1/5
f 208/2/5 199/2/5 207/2/5
f 209/2/5 201/2/5 200/2/5
f 209/1/5 200/1/5 208/1/5
f 210/2/5 204/2/5 203/2/5
f 210/2/5 203/2/5 202/2/5
f 211/1/5 205/1/5 204/1/5
f 211/2/5 204/2/5 210/2/5
f 212/2/5 207/2/5 206/2/5
f 212/1/5 205/1/5 211/1/5
f 212/2/5 206/2/5 205/2/5
f 213/2/5 207/2/5 212/2/5
f 214/1/5 208/1/5 207/1/5
f 214/2/5 207/2/5 213/2/5
f 215/2/5 209/2/5 208/2/5
f 215/1/5 208/1/5 214/1/5
f 216/1/5 211/1/5 210/1/5
f 216/2/5 210/2/5 202/2/5
f 217/2/5 213/2/5 212/2/5
f 217/1/5 211/1/5 216/1/5
f 217/2/5 212/2/5 211/2/5
f 218/1/5 214/1/5 213/1/5
f 218/2/5 213/2/5 217/2/5
f 219/2/5 215/2/5 214/2/5
f 219/1/5 214/1/5 218/1/5
f 220/2/5 216/2/5 202/2/5
f 220/2/5 202/2/5 181/2/5
f 220/2/5 219/2/5 218/2/5
f 220/2/5 217/2/5 216/2/5
f 220/2/5 218/2/5 217/2/5
f 221/2/5 209/2/5 215/2/5
f 221/2/5 219/2/5 220/2/5
f 221/2/5 190/2/5 201/2/5
f 221/2/5 201/2/5 209/2/5
f 221/2/5 215/2/5 219/2/5
f 230/2/5 223/2/5 222/2/5
f 231/1/5 224/1/5 223/1/5
f 231/2/5 223/2/5 230/2/5
f 232/2/5 225/2/5 224/2/5
f 232/1/5 224/1/5 231/1/5
f 233/1/5 226/1/5 225/1/5
f 233/2/5 225/2/5 232/2/5
f 234/2/5 227/2/5 226/2/5
f 234/1/5 226/1/5 233/1/5
f 235/1/5 228/1/5 227/1/5
f 235/2/5 227/2/5 234/2/5
f 236/2/5 229/2/5 228/2/5
f 236/1/5 228/1/5 235/1/5
f 237/2/5 229/2/5 236/2/5
f 250/2/5 239/2/5 238/2/5
f 251/1/5 240/1/5 239/1/5
f 251/2/5 239/2/5 250/2/5
f 251/1/5 241/1/5 240/1/5
f 252/2/5 242/2/5 241/2/5
f 252/1/5 241/1/5 251/1/5
f 252/2/5 243/2/5 242/2/5
f 253/1/5 244/1/5 243/1/5
f 253/2/5 243/2/5 252/2/5
f 254/2/5 245/2/5 244/2/5
f 254/1/5 244/1/5 253/1/5
f 254/2/5 246/2/5 245/2/5
f 255/1/5 247/1/5 246/1/5
f 255/2/5 246/2/5 254/2/5
f 256/2/5 249/2/5 248/2/5
f 256/1/5 247/1/5 255/1/5
f 256/2/5 248/2/5 247/2/5
f 257/2/5 249/2/5 256/2/5
f 270/2/5 259/2/5 258/2/5
f 271/1/5 260/1/5 259/1/5
f 271/2/5 259/2/5 270/2/5
f 271/1/5 261/1/5 260/1/5
f 272/2/5 262/2/5 261/2/5
f 272/1/5 261/1/5 271/1/5
f 272/2/5 263/2/5 262/2/5
f 273/1/5 264/1/5 263/1/5
f 273/2/5 263/2/5 272/2/5
f 274/2/5 265/2/5 264/2/5
f 274/1/5 264/1/5 273/1/5
f 274/2/5 266/2/5 265/2/5
f 275/1/5 267/1/5 266/1/5
f 275/2/5 266/2/5 274/2/5
f 276/2/5 269/2/5 268/2/5
f 276/1/5 267/1/5 275/1/5
f 276/2/5 268/2/5 267/2/5
f 277/2/5 269/2/5 276/2/5
f 278/2/6 279/2/6 290/2/6
f 279/2/6 280/2/6 290/2/6
f 280/1/6 281/1/6 291/1/6
f 290/2/6 280/2/6 291/2/6
f 281/1/6 282/1/6 291/1/6
f 282/2/6 283/2/6 292/2/6
f 291/1/6 282/1/6 292/1/6
f 283/2/6 284/2/6 292/2/6
f 284/1/6 285/1/6 293/1/6
f 292/2/6 284/2/6 293/2/6
f 286/2/6 287/2/6 294/2/6
f 293/1/6 285/1/6 294/1/6
f 285/2/6 286/2/6 294/2/6
f 287/1/6 288/1/6 295/1/6
f 294/2/6 287/2/6 295/2/6
f 288/2/6 289/2/6 296/2/6
f 295/1/6 288/1/6 296/1/6
f 296/2/6 289/2/6 297/2/6
f 298/2/6 299/2/6 310/2/6
f 299/2/6 300/2/6 310/2/6
f 300/1/6 301/1/6 311/1/6
f 310/2/6 300/2/6 311/2/6
f 301/1/6 302/1/6 311/1/6
f 302/2/6 303/2/6 312/2/6
f 311/1/6 302/1/6 312/1/6
f 303/2/6 304/2/6 312/2/6
f 304/1/6 305/1/6 313/1/6
f 312/2/6 304/2/6 313/2/6
f 306/2/6 307/2/6 314/2/6
f 313/1/6 305/1/6 314/1/6
f 305/2/6 306/2/6 314/2/6
f 307/1/6 308/1/6 315/1/6
f 314/2/6 307/2/6 315/2/6
f 308/2/6 309/2/6 316/2/6
f 315/1/6 308/1/6 316/1/6
f 316/2/6 309/2/6 317/2/6
f 318/2/6 319/2/6 326/2/6
f 319/1/6 320/1/6 327/1/6
f 326/2/6 319/2/6 327/2/6
f 320/2/6 321/2/6 328/2/6
f 327/1/6 320/1/6 328/1/6
f 321/1/6 322/1/6 329/1/6
f 328/2/6 321/2/6 329/2/6
f 322/2/6 323/2/6 330/2/6
f 329/1/6 322/1/6 330/1/6
f 323/1/6 324/1/6 331/1/6
f 330/2/6 323/2/6 331/2/6
f 324/2/6 325/2/6 332/2/6
f 331/1/6 324/1/6 332/1/6
f 332/2/6 325/2/6 333/2/6
f 334/2/6 335/2/6 336/2/6
f 336/2/6 335/2/6 337/2/6
